<svg width="127" height="131" viewBox="0 0 127 131" fill="none" xmlns="http://www.w3.org/2000/svg">
<path d="M105.608 5.80562C104.676 5.09555 103.595 4.64374 102.417 4.47965L74.3976 0.995862C72.5545 0.791937 70.5605 1.32624 69.224 2.68748C67.603 4.12494 66.957 6.43524 67.3504 8.55434C66.8309 9.87129 63.2796 13.2217 56.5243 15.0318C49.769 16.8419 45.0183 15.716 43.9099 14.8352C42.738 10.7875 37.3652 9.13048 34.0982 11.7504L11.5039 28.8398C10.5657 29.5709 9.85561 30.5026 9.4038 31.5834L0.623934 53.9997C-0.355444 56.5303 0.378225 59.4303 2.50261 61.1729L23.0316 78.0478C25.7998 80.4027 30.3666 79.7027 32.2868 76.6147L48.8167 126.096C49.8411 129.268 53.2029 131.071 56.418 130.21L114.205 114.726C117.42 113.864 119.43 110.621 118.731 107.363L108.306 56.2454C111.513 57.9596 115.818 56.2824 117.038 52.8589L126.379 27.9804C127.347 25.409 126.533 22.5307 124.419 20.8288L105.608 5.80562Z" fill="#6174FB"/>
</svg>
